<svg id="Layer_1" enable-background="new 0 0 53 53" height="512" viewBox="0 0 53 53" width="512" xmlns="http://www.w3.org/2000/svg"><g><path d="m20.649 27.632h4.504v4.935h-4.504z" fill="#ededed" transform="matrix(.707 -.707 .707 .707 -14.576 25.009)"/><path d="m23.3937225 35.4897232-13.3167114 13.3166504c-1.624526 1.6245155-4.2584038 1.6245041-5.8829293-.0000267l-.0000057-.0000038c-1.6245258-1.6245308-1.6245248-4.2584038.0000019-5.8829193l13.3167114-13.3166504c.4728832-.4728813 1.2395802-.4728794 1.7124634.0000057l4.1704693 4.1704807c.4728856.472889.4728856 1.2395821.0000004 1.7124634z" fill="#ffc536"/><path d="m45.4417381 29.6758385c-6.1100998 6.1100578-16.0151939 6.1100159-22.1252365-.0000439-6.1018162-6.1018333-6.101862-16.0069656.008234-22.1170235s16.0152454-6.1099648 22.1170597-.0081306c6.1100426 6.1100603 6.1100388 16.0151401-.0000572 22.125198z" fill="#2c3642"/><path d="m25.7971668 27.195549c-4.7274761-4.7274914-4.7242432-12.4238615.0080814-17.1561565s12.4287071-4.7354913 17.1561852-.0080004c4.7323189 4.7323351 4.7323189 12.4319353-.0000076 17.1642303s-12.4319382 4.7322607-17.164259-.0000734z" fill="#00aeff"/></g></svg>